PathFileType	4	(X/Y/Z)	Walk6.trc
DataRate	CameraRate	NumFrames	NumMarkers	Units	OrigDataRate	OrigDataStartFrame	OrigNumFrames
200.000000	200.000000	4	59	mm	200.000000	318	554
Frame#	Times		C7		CLAV		STRN		RBack		LASI		RASI		RACR1		RUA1		RElbow		RFA1		RWRR		RWRU		RCAR		LACR1		LFA1		LWRU		LCAR		RTH1		RTH3		RTH2		RTH4		RLFC		LTH1		LTH3		LTH2		LTH4		LLFC		LTB1		LTB3		LTB2		LTB4		LMMAL		LMT1		LToe		LFHD		RFHD		T10		LMT5		LPSI		RPSI		LLMAL		RBHD		RTB1		LUA1		LBHD		RTB2		RTB3		RToe		RTB4		LCAL		RElbowM		RCAL		RMT1		LElbow		LElbowM		LWRR		RLMAL		RMT5		RMMAL
			X1	Y1	Z1	X2	Y2	Z2	X3	Y3	Z3	X4	Y4	Z4	X5	Y5	Z5	X6	Y6	Z6	X7	Y7	Z7	X8	Y8	Z8	X9	Y9	Z9	X10	Y10	Z10	X11	Y11	Z11	X12	Y12	Z12	X13	Y13	Z13	X14	Y14	Z14	X15	Y15	Z15	X16	Y16	Z16	X17	Y17	Z17	X18	Y18	Z18	X19	Y19	Z19	X20	Y20	Z20	X21	Y21	Z21	X22	Y22	Z22	X23	Y23	Z23	X24	Y24	Z24	X25	Y25	Z25	X26	Y26	Z26	X27	Y27	Z27	X28	Y28	Z28	X29	Y29	Z29	X30	Y30	Z30	X31	Y31	Z31	X32	Y32	Z32	X33	Y33	Z33	X34	Y34	Z34	X35	Y35	Z35	X36	Y36	Z36	X37	Y37	Z37	X38	Y38	Z38	X39	Y39	Z39	X40	Y40	Z40	X41	Y41	Z41	X42	Y42	Z42	X43	Y43	Z43	X44	Y44	Z44	X45	Y45	Z45	X46	Y46	Z46	X47	Y47	Z47	X48	Y48	Z48	X49	Y49	Z49	X50	Y50	Z50	X51	Y51	Z51	X52	Y52	Z52	X53	Y53	Z53	X54	Y54	Z54	X55	Y55	Z55	X56	Y56	Z56	X57	Y57	Z57	X58	Y58	Z58	X59	Y59	Z59

318	1.59	-355.68	1423.5	-43.415	-230.11	1347.9	-52.577	-151.63	1124.5	-52.437	-396.12	1318.2	51.251	-210.1	939.47	-174.37	-196.49	959.85	94.727	-277.06	1355.9	123.17	-320.2	1146.6	181.94	-354.68	1043.9	201.86	-310.68	898.28	216.58	-301.08	790.43	181.89	-353.27	793.83	234.29	-313.87	746.07	232.07	-295.31	1364.8	-219.3	-222.6	929.32	-281.58	-219.09	807.72	-289.97	-163.01	782.76	-270.84	-248.53	762.9	152.52	-174.08	592.28	114.38	-150.16	711.92	111.83	-211.06	677.23	133.77	-151.65	498.78	101.34	-321.29	730.61	-192.46	-317.68	549.01	-150.13	-247.78	640.18	-147.18	-321.24	635.13	-169.94	-329.7	440.34	-134	-326.15	340.11	-50.337	-393.39	164.72	-46.329	-376.38	255.69	-121.92	-358.15	249.96	-52.002	-444.55	74.047	-11.114	-318.18	38.28	-57.644	-271.46	28.767	-88.755	-193.62	1591	-80.807	-184.29	1592.7	-8.0447	-386.84	1139.4	-44.049	-360.11	22.407	-134.86	-419.98	979.76	-79.39	-414.07	984.64	33.736	-462.78	65.031	-92.342	-352.92	1550.5	34.569	-119.8	374.44	37.922	-299	1157.8	-273.61	-363.44	1558.3	-92.008	-165.39	292.78	103.17	-162.02	194.95	35.498	-40.406	48.47	103.77	-141.56	284.21	36.821	-514.69	35.296	-37.281	-367.14	1024.4	118.44	-262.29	63.292	22.256	-68.767	56.939	65.763	-304.36	1036.8	-290.49	-335.93	1020.1	-228.53	-181.67	824.86	-230.95	-225.43	95.241	78.115	-125.74	33.414	122.34	-189.16	109.12	5.1073
319	1.595	-350.16	1422.7	-43.203	-224.54	1347.2	-52.516	-146.02	1123.7	-52.622	-390.53	1317.4	51.356	-205	938.34	-174.36	-190.74	958.93	94.592	-271.41	1355	123.28	-314.93	1145.9	182.08	-349.55	1043.2	202.03	-305.94	897.49	216.88	-296.68	789.57	182.2	-348.83	793.16	234.65	-309.64	745.21	232.34	-289.89	1364.3	-219.17	-214.92	929.72	-281.78	-209.87	808.15	-289.6	-153.4	784.07	-270.53	-242.72	762.36	152.91	-168.5	591.65	114.62	-144.65	711.28	111.64	-205.33	676.63	134.18	-146.09	497.54	101.91	-316.82	729.87	-192.21	-313.93	548.23	-149.94	-243.65	639.11	-146.99	-317.11	634.42	-169.8	-326.57	439.59	-133.78	-323.76	339.3	-50.15	-392.43	164.45	-46.185	-374.62	255.27	-121.77	-356.48	249.39	-51.839	-444.21	74.211	-10.991	-318.14	38.251	-57.641	-271.39	28.683	-88.935	-188.12	1590.2	-80.491	-178.79	1591.9	-7.7251	-381.21	1138.6	-43.935	-360.1	22.417	-134.84	-414.54	979.09	-79.015	-408.28	983.99	34.074	-462.56	65.308	-92.27	-347.41	1549.7	34.878	-111.09	374.04	38.167	-293.2	1157.4	-273.87	-357.96	1557.6	-91.691	-153.74	290.9	103.46	-147.31	193.3	35.698	-20.861	50.375	103.65	-129.83	283.17	37.065	-514.6	35.775	-37.111	-361.93	1023.6	118.62	-243.26	58.553	22.446	-49.531	58.122	65.731	-297.88	1036.3	-290.9	-329.32	1019.4	-228.93	-172.53	826.07	-230.79	-207.31	91.558	78.317	-105.69	32.885	122.46	-171.65	106.68	5.2549
320	1.6	-344.62	1421.9	-42.977	-218.95	1346.4	-52.439	-140.4	1122.8	-52.79	-384.91	1316.5	51.474	-199.92	937.18	-174.37	-184.96	957.91	94.491	-265.74	1354	123.41	-309.63	1145.1	182.24	-344.39	1042.4	202.23	-301.12	896.66	217.2	-292.18	788.68	182.52	-344.29	792.44	235.02	-305.3	744.31	232.63	-284.43	1363.7	-219.03	-207.27	930.07	-281.98	-200.73	808.56	-289.22	-143.86	785.34	-270.24	-236.96	761.72	153.29	-163.09	590.87	114.91	-139.23	710.47	111.46	-199.71	675.91	134.62	-140.65	496.18	102.52	-312.32	729.1	-191.96	-310.15	547.43	-149.76	-239.48	638.04	-146.8	-312.97	633.69	-169.67	-323.41	438.83	-133.58	-321.33	338.48	-49.975	-391.46	164.18	-46.043	-372.84	254.84	-121.62	-354.79	248.81	-51.683	-443.86	74.4	-10.867	-318.1	38.223	-57.64	-271.31	28.599	-89.104	-182.63	1589.5	-80.158	-173.28	1591.1	-7.3882	-375.56	1137.8	-43.791	-360.09	22.43	-134.81	-409.08	978.38	-78.609	-402.45	983.29	34.448	-462.33	65.602	-92.194	-341.9	1548.9	35.204	-102.53	373.63	38.425	-287.43	1156.9	-274.09	-352.47	1556.9	-91.356	-142.18	289.11	103.77	-132.71	191.82	35.906	-1.467	52.611	103.37	-118.22	282.21	37.323	-514.5	36.284	-36.929	-356.7	1022.8	118.82	-224.24	54.121	22.67	-30.455	59.588	65.565	-291.42	1035.8	-291.27	-322.71	1018.7	-229.28	-163.42	827.26	-230.65	-189.2	88.142	78.534	-85.713	32.664	122.48	-154.23	104.51	5.4088
321	1.605	-339.06	1421.1	-42.738	-213.33	1345.6	-52.344	-134.76	1121.9	-52.942	-379.28	1315.5	51.609	-194.84	935.99	-174.39	-179.14	956.79	94.424	-260.05	1353.1	123.55	-304.29	1144.2	182.42	-339.18	1041.7	202.45	-296.24	895.8	217.54	-287.59	787.77	182.86	-339.67	791.68	235.42	-300.87	743.39	232.93	-278.96	1363.1	-218.88	-199.65	930.37	-282.16	-191.66	808.95	-288.84	-134.41	786.56	-269.97	-231.24	760.99	153.67	-157.85	589.93	115.28	-133.91	709.47	111.29	-194.2	675.07	135.09	-135.34	494.71	103.16	-307.82	728.31	-191.72	-306.33	546.61	-149.6	-235.29	636.94	-146.62	-308.8	632.95	-169.55	-320.21	438.05	-133.39	-318.88	337.64	-49.814	-390.47	163.92	-45.905	-371.04	254.41	-121.48	-353.07	248.22	-51.534	-443.49	74.615	-10.742	-318.06	38.196	-57.642	-271.24	28.517	-89.263	-177.13	1588.7	-79.807	-167.76	1590.3	-7.0336	-369.88	1136.9	-43.613	-360.08	22.447	-134.77	-403.59	977.64	-78.17	-396.58	982.54	34.857	-462.09	65.913	-92.114	-336.37	1548	35.546	-94.102	373.21	38.695	-281.67	1156.4	-274.29	-346.97	1556.1	-91.003	-130.72	287.4	104.1	-118.24	190.51	36.122	17.728	55.182	102.94	-106.75	281.34	37.592	-514.39	36.826	-36.737	-351.47	1022	119.05	-205.26	50.005	22.927	-11.583	61.335	65.272	-284.98	1035.3	-291.6	-316.11	1018	-229.59	-154.37	828.4	-230.52	-171.14	85.01	78.766	-65.844	32.756	122.41	-136.94	102.61	5.57
